<svg width="110.2912841796875px" height="228.802490234375px" xmlns="http://www.w3.org/2000/svg" viewBox="194.85435791015624 -39.4012451171875 110.2912841796875 228.802490234375" style="background: rgba(0, 0, 0, 0);" preserveAspectRatio="xMidYMid"><defs><filter id="editing-hole" x="-100%" y="-100%" width="300%" height="300%"><feFlood flood-color="#ffffff" result="black"></feFlood><feMorphology operator="dilate" radius="2" in="SourceGraphic" result="erode"></feMorphology><feGaussianBlur in="erode" stdDeviation="4" result="blur"></feGaussianBlur><feOffset in="blur" dx="2" dy="2" result="offset"></feOffset><feComposite operator="atop" in="offset" in2="black" result="merge"></feComposite><feComposite operator="in" in="merge" in2="SourceGraphic" result="inner-shadow"></feComposite></filter></defs><g filter="url(#editing-hole)"><g transform="translate(218.1496868133545, 126.58499908447266)"><path d="M23.04 11.14L23.04 11.14Q15.62 11.14 9.92 8L9.92 8L9.92 8Q4.22 4.86 1.15-0.45L1.15-0.45L1.15-0.45Q-1.92-5.76-1.92-12.16L-1.92-12.16L-1.92-12.16Q-1.92-19.97 2.56-27.26L2.56-27.26L2.56-27.26Q7.04-34.56 14.66-39.49L14.66-39.49L14.66-39.49Q22.27-44.42 31.23-45.31L31.23-45.31L31.23-45.31Q26.37-49.28 23.94-54.59L23.94-54.59L23.94-54.59Q21.50-59.90 21.50-65.54L21.50-65.54L21.50-65.54Q21.50-72.32 24.96-78.46L24.96-78.46L24.96-78.46Q28.42-84.61 34.43-88.32L34.43-88.32L34.43-88.32Q40.45-92.03 47.87-92.03L47.87-92.03L47.87-92.03Q54.91-92.03 58.69-88.45L58.69-88.45L58.69-88.45Q62.46-84.86 62.46-78.21L62.46-78.21L62.46-78.21Q62.46-73.60 60.80-69.12L60.80-69.12L60.80-69.12Q59.14-64.64 56.70-61.76L56.70-61.76L56.70-61.76Q54.27-58.88 52.22-58.88L52.22-58.88L52.22-58.88Q50.82-58.88 49.54-60.03L49.54-60.03L49.54-60.03Q48.26-61.18 47.49-62.98L47.49-62.98L47.49-62.98Q58.24-72.32 58.24-80.77L58.24-80.77L58.24-80.77Q58.24-84.74 55.94-86.91L55.94-86.91L55.94-86.91Q53.63-89.09 49.15-89.09L49.15-89.09L49.15-89.09Q40.58-89.09 35.71-81.73L35.71-81.73L35.71-81.73Q30.85-74.37 30.85-63.36L30.85-63.36L30.85-63.36Q30.85-50.43 38.27-44.03L38.27-44.03L38.27-44.03Q30.08-42.62 23.62-37.63L23.62-37.63L23.62-37.63Q17.15-32.64 13.57-25.66L13.57-25.66L13.57-25.66Q9.98-18.69 9.98-11.78L9.98-11.78L9.98-11.78Q9.98-4.48 14.02 1.15L14.02 1.15L14.02 1.15Q18.05 6.78 26.37 6.78L26.37 6.78L26.37 6.78Q32.90 6.78 39.68 3.01L39.68 3.01L39.68 3.01Q46.46-0.77 52.10-7.04L52.10-7.04L52.10-7.04Q57.73-13.31 61.18-20.74L61.18-20.74L62.98-19.46L62.98-19.46Q55.81-5.63 45.57 2.75L45.57 2.75L45.57 2.75Q35.33 11.14 23.04 11.14L23.04 11.14Z" fill="#ffffff"></path></g></g><style>text {
  font-size: 64px;
  font-family: Arial Black;
  dominant-baseline: central;
  text-anchor: middle;
}</style></svg>