<svg id="Capa_1" enable-background="new 0 0 511.999 511.999" height="512" viewBox="0 0 511.999 511.999" width="512" xmlns="http://www.w3.org/2000/svg"><g><path d="m471.26 0h-288.86c-86.39 0-156.66 70.28-156.66 156.66v340.33c0 11.81 12.98 18.89 22.9 12.75l76.73-47.56c8.83-5.48 18.99-8.37 29.38-8.37h174.87c86.37 0 156.64-70.27 156.64-156.65v-282.16c0-8.28-6.71-15-15-15zm-215.26 352.11c-8.29 0-15-6.72-15-15s6.71-15 15-15c8.28 0 15 6.72 15 15s-6.72 15-15 15zm15-75.54c0 8.28-6.72 15-15 15-8.29 0-15-6.72-15-15v-174.72c0-8.28 6.71-15 15-15 8.28 0 15 6.72 15 15z"/></g></svg>